<?xml version="1.0" standalone="no"?>
<!DOCTYPE svg PUBLIC "-//W3C//DTD SVG 20010904//EN"
 "http://www.w3.org/TR/2001/REC-SVG-20010904/DTD/svg10.dtd">
<svg version="1.0" xmlns="http://www.w3.org/2000/svg"
 width="549.000000pt" height="449.000000pt" viewBox="0 0 549.000000 449.000000"
 preserveAspectRatio="xMidYMid meet">
<metadata>
Created by potrace 1.16, written by Peter Selinger 2001-2019
</metadata>
<g transform="translate(0.000000,449.000000) scale(0.100000,-0.100000)"
fill="#000000" stroke="none">
<path d="M4235 3783 c-16 -9 -33 -20 -36 -25 -3 -5 -13 -6 -22 -2 -11 4 -17 1
-17 -9 0 -15 -28 -27 -64 -27 -21 0 -69 -47 -61 -60 3 -4 -2 -11 -10 -14 -12
-4 -13 -11 -7 -23 5 -10 7 -24 4 -32 -3 -10 4 -13 30 -9 33 3 34 3 31 -30 -2
-29 0 -32 17 -27 26 8 25 -6 0 -35 -22 -26 -18 -36 20 -43 25 -4 25 -4 3 -12
-27 -9 -29 -20 -5 -29 9 -3 24 -10 32 -16 8 -5 28 -15 44 -20 22 -8 26 -13 17
-24 -9 -11 -5 -15 22 -20 65 -12 69 -6 63 108 -6 112 -18 173 -37 190 -9 8
-10 8 -4 -3 6 -10 4 -12 -4 -7 -9 6 -9 11 0 22 9 11 8 14 -2 15 -8 0 -5 4 6 9
16 7 16 9 4 9 -9 1 -19 8 -23 16 -4 11 -22 15 -63 16 -32 1 -49 3 -38 6 11 3
24 9 30 14 5 5 19 9 30 9 25 0 79 43 74 58 -3 7 -15 5 -34 -5z"/>
<path d="M2957 3560 c-5 -21 -27 -28 -27 -9 0 6 -11 4 -27 -5 -16 -8 -36 -17
-46 -20 -10 -3 -15 -10 -12 -16 3 -6 -1 -13 -9 -16 -22 -8 -20 -31 4 -56 13
-15 20 -17 20 -8 0 11 3 11 11 3 7 -7 25 -9 40 -6 18 3 29 1 29 -6 0 -18 28
-13 39 7 7 13 18 17 43 14 23 -2 39 2 47 12 8 9 17 16 21 16 12 0 7 -34 -7
-45 -6 -5 -13 -21 -15 -35 -2 -17 -8 -24 -20 -22 -19 3 -25 -22 -8 -33 6 -4 2
-15 -10 -27 -23 -25 -25 -34 -10 -43 8 -5 8 -11 1 -19 -6 -7 -8 -16 -4 -20 4
-4 -1 -4 -12 0 -16 6 -18 5 -7 -7 14 -15 17 -43 3 -34 -5 3 -12 1 -16 -5 -3
-5 -1 -10 5 -10 6 0 8 -10 4 -25 -4 -15 -1 -32 7 -42 12 -15 12 -16 -4 -10
-15 6 -17 3 -11 -16 16 -53 25 -68 34 -62 5 3 10 0 11 -7 0 -7 4 -4 9 7 5 11
9 14 9 8 1 -7 8 -13 16 -13 8 0 15 6 15 13 0 9 2 9 9 -1 7 -11 11 -11 24 2 9
9 23 13 32 10 10 -4 21 -1 26 7 7 12 9 11 9 -2 0 -11 7 -14 28 -11 18 2 33 -2
41 -12 14 -17 41 -22 41 -7 0 5 7 11 14 14 11 4 13 1 9 -10 -4 -11 -3 -14 6
-9 21 13 61 -3 61 -24 0 -12 -7 -20 -17 -20 -9 0 -13 -3 -10 -7 4 -3 -2 -13
-13 -20 -11 -8 -17 -19 -14 -25 4 -7 10 -4 16 6 9 16 12 16 33 2 13 -9 31 -13
39 -10 20 8 21 -10 1 -30 -18 -17 -12 -21 35 -25 46 -4 58 -16 37 -39 -22 -24
-22 -52 1 -53 14 0 14 -2 -3 -9 -18 -7 -19 -8 -2 -15 21 -9 23 -25 2 -25 -10
0 -15 -10 -15 -32 0 -24 3 -29 9 -18 6 8 7 18 5 22 -3 4 0 8 5 8 6 0 11 -5 11
-12 0 -9 3 -9 12 0 7 7 25 12 40 12 15 0 28 5 28 10 0 6 -9 10 -19 10 -33 0
-51 11 -51 31 0 11 7 19 16 19 8 0 13 -4 10 -9 -3 -5 1 -11 8 -14 8 -3 16 -2
18 3 2 5 24 10 50 12 37 2 49 8 57 26 7 14 7 22 1 22 -6 0 -10 -5 -10 -12 0
-6 -3 -9 -6 -5 -3 3 -3 15 1 27 5 16 10 18 20 10 9 -7 15 -8 19 -1 4 6 13 8
21 4 8 -3 15 0 15 6 0 6 5 10 12 8 7 -1 12 7 13 17 0 14 12 22 40 30 35 10 40
15 41 44 2 47 44 89 44 45 0 -13 3 -14 12 -5 13 13 -6 42 -28 42 -19 0 -18 10
4 26 16 13 16 14 -5 20 -13 3 -21 9 -18 13 3 7 -4 7 -47 2 -4 -1 -5 -8 -1 -17
5 -14 3 -14 -16 -3 -27 18 -27 29 2 30 21 0 21 1 -3 11 -21 9 -22 12 -7 15 23
6 22 19 -3 26 -11 3 -18 1 -14 -4 3 -5 0 -9 -5 -9 -6 0 -11 7 -11 15 0 8 -7
15 -16 15 -27 0 -41 24 -37 60 4 35 4 35 -14 14 -10 -12 -26 -24 -35 -27 -10
-4 -18 -15 -18 -26 0 -14 -5 -19 -15 -15 -8 4 -15 1 -15 -5 0 -6 5 -11 10 -11
6 0 10 -4 10 -10 0 -5 -9 -10 -20 -10 -15 0 -20 -7 -21 -27 l0 -28 -12 24 c-9
19 -9 25 1 29 6 2 12 11 12 20 -1 14 -5 12 -20 -7 -11 -13 -20 -20 -20 -15 0
4 -5 3 -11 -3 -9 -9 -8 -16 5 -28 22 -23 20 -34 -9 -45 -14 -5 -25 -15 -25
-21 0 -8 -7 -6 -18 4 -22 20 -38 22 -45 5 -4 -10 -6 -10 -6 -1 -1 11 36 43 50
43 4 0 5 -10 2 -22 -4 -20 -3 -21 7 -5 6 9 9 26 5 36 -3 12 0 21 10 25 8 3 15
13 16 23 1 31 35 78 60 83 16 3 24 12 24 25 0 16 8 21 43 23 23 2 42 6 42 10
0 4 3 17 6 30 5 17 2 22 -14 22 -12 0 -23 4 -27 10 -3 5 -12 7 -20 3 -8 -3
-23 -2 -32 3 -10 4 -20 8 -23 8 -3 1 -14 7 -25 13 -11 6 -36 14 -55 18 -19 4
-51 14 -70 23 -19 8 -44 19 -55 23 -11 5 -29 8 -40 6 -11 -1 -20 4 -20 13 -1
8 -7 14 -14 12 -7 -1 -15 7 -18 18 -6 23 -42 27 -61 8 -10 -10 -15 -10 -22 2
-8 13 -11 12 -24 -5 -8 -11 -18 -17 -22 -12 -4 4 -2 7 5 7 7 0 9 5 6 10 -4 6
-15 8 -24 5 -12 -3 -18 0 -18 10 0 8 4 15 9 15 4 0 8 15 8 33 l-1 32 -14 -25
c-8 -14 -14 -20 -15 -14 0 14 -51 37 -59 27 -8 -12 -32 -10 -57 4 -19 11 -22
10 -27 -7z"/>
<path d="M1816 3455 c-3 -9 -6 -26 -7 -38 0 -21 -1 -21 -8 -2 -5 11 -6 26 -4
33 3 6 0 12 -6 12 -6 0 -11 -7 -11 -16 0 -8 -4 -13 -9 -9 -12 7 -33 -29 -23
-40 4 -5 -1 -5 -10 -2 -12 4 -24 -3 -37 -22 -11 -16 -18 -31 -14 -34 3 -4 0
-13 -6 -21 -9 -11 -10 -20 -1 -35 6 -12 7 -21 2 -21 -9 0 -15 -50 -13 -114 0
-16 -3 -34 -8 -40 -5 -6 -11 -28 -13 -48 -3 -30 0 -39 15 -44 10 -3 16 -11 13
-17 -3 -7 -9 -20 -12 -29 -7 -19 -24 -25 -24 -8 0 6 -4 10 -10 10 -5 0 -10 -7
-10 -15 0 -8 5 -15 10 -15 21 0 8 -19 -20 -29 -37 -12 -41 -34 -5 -25 27 7 36
-12 10 -22 -17 -7 -21 -54 -5 -54 6 0 10 7 10 15 0 8 7 15 15 15 9 0 15 -7 13
-16 -2 -12 11 -20 47 -31 28 -8 64 -20 80 -28 24 -12 26 -15 10 -16 -11 -1
-29 -1 -40 0 -23 2 -48 -42 -33 -57 14 -14 -3 -21 -35 -15 -28 5 -35 17 -17
28 6 3 10 16 9 28 -1 20 -2 20 -9 -3 -8 -24 -8 -24 -9 -2 -1 12 -4 21 -8 20
-5 -2 -9 1 -10 7 -3 15 -37 23 -56 13 -14 -7 -16 -13 -7 -23 6 -8 18 -11 26
-8 8 3 14 -1 14 -10 0 -8 6 -18 13 -20 6 -3 1 -6 -13 -6 -24 -1 -66 -20 -45
-21 6 0 3 -4 -5 -10 -12 -7 -12 -12 4 -29 11 -12 15 -21 10 -21 -5 0 2 -9 15
-19 18 -14 21 -20 11 -26 -8 -5 -11 -4 -7 3 5 6 -1 8 -14 5 -31 -9 -3 -21 54
-25 29 -2 47 -8 47 -15 0 -20 16 -15 34 10 12 15 18 18 22 10 3 -7 20 -14 37
-14 22 -1 25 -3 12 -6 -11 -3 -26 -10 -32 -15 -9 -7 -13 -6 -13 3 0 8 -14 -2
-30 -21 -23 -27 -30 -31 -30 -17 0 10 -4 16 -9 13 -5 -4 -11 -2 -13 4 -2 6
-13 12 -26 15 -28 5 -43 -23 -19 -37 10 -5 17 -21 17 -38 0 -23 5 -30 19 -30
11 0 28 -3 38 -6 11 -3 14 -2 7 3 -15 11 -25 43 -14 43 5 0 14 -8 19 -17 9
-17 12 -16 28 7 10 14 17 28 15 33 -3 11 26 8 34 -4 3 -6 17 -9 31 -6 13 2 21
1 16 -3 -4 -5 -21 -10 -38 -12 -31 -3 -37 -22 -7 -24 38 -2 42 -5 42 -23 0
-11 5 -21 12 -23 23 -8 14 -34 -18 -49 -18 -9 -32 -13 -29 -9 2 3 -6 6 -18 6
-12 -1 -21 4 -20 11 2 7 -5 12 -15 11 -34 -3 -53 2 -47 12 5 8 11 7 21 -1 12
-10 16 -8 21 9 3 12 9 19 14 16 5 -3 9 0 9 6 0 8 -7 9 -17 5 -10 -4 -26 -10
-35 -12 -10 -3 -18 -9 -18 -14 0 -5 -9 -9 -19 -9 -11 0 -23 -5 -27 -11 -4 -7
0 -9 14 -5 12 4 32 1 44 -6 13 -7 29 -11 36 -10 6 2 12 -2 12 -8 0 -5 7 -10
16 -10 28 0 5 -18 -32 -25 -20 -3 -34 -8 -31 -11 9 -10 137 29 137 41 0 7 9
15 20 18 24 6 28 47 5 47 -8 0 -15 5 -15 10 0 15 40 12 41 -2 1 -7 3 -23 4
-35 1 -13 -3 -23 -10 -23 -6 0 -21 -11 -33 -25 -12 -14 -28 -25 -36 -25 -19 0
-28 -28 -16 -48 9 -16 9 -16 10 1 0 9 6 17 13 17 6 0 22 3 35 6 13 4 22 2 22
-5 0 -6 -11 -13 -25 -17 -14 -3 -23 -10 -20 -14 3 -5 -3 -14 -12 -20 -14 -8
-5 -10 40 -7 52 4 85 -5 55 -16 -7 -2 -1 -2 13 0 22 3 26 -1 35 -34 6 -28 15
-38 29 -39 34 -2 55 -15 55 -35 0 -10 5 -19 11 -19 5 0 7 -4 4 -10 -3 -6 1 -7
9 -4 11 4 16 0 16 -11 0 -9 4 -14 9 -11 5 3 11 -3 14 -14 3 -11 1 -20 -5 -20
-5 0 -7 -4 -3 -9 7 -12 45 -10 45 3 0 5 3 7 6 4 3 -4 1 -15 -5 -26 -8 -15 -7
-20 2 -19 50 1 68 -5 76 -26 6 -15 18 -23 37 -25 16 -1 31 -7 32 -12 2 -6 10
-10 18 -10 8 0 17 -13 20 -30 4 -16 11 -27 16 -24 5 3 7 12 4 20 -3 8 1 14 9
14 8 0 15 -9 15 -20 0 -18 3 -19 21 -10 11 6 28 9 37 7 12 -3 11 -5 -5 -6 -13
0 -23 -6 -23 -12 0 -8 11 -9 31 -5 17 3 37 6 43 6 6 0 5 4 -3 9 -9 6 2 12 38
20 64 14 84 14 76 1 -4 -6 7 -10 24 -10 17 0 31 5 31 10 0 6 16 10 35 10 22 0
43 8 55 20 17 17 24 18 41 9 11 -6 23 -8 27 -5 3 3 -1 6 -8 6 -10 0 -11 3 -3
11 6 6 21 8 33 4 18 -6 20 -9 9 -16 -10 -6 -4 -9 19 -9 17 0 32 -5 32 -11 0
-6 9 -9 20 -6 10 3 21 0 22 -5 2 -6 10 -3 17 6 11 14 11 16 -3 16 -9 0 -16 7
-16 16 0 8 -4 12 -10 9 -5 -3 -10 -1 -10 4 0 6 5 11 10 11 6 0 8 12 4 28 l-6
27 14 -25 c8 -14 10 -27 5 -29 -4 -1 -1 -12 9 -22 12 -13 31 -19 60 -19 42 0
42 0 50 43 5 23 9 48 9 56 0 23 19 23 33 1 10 -17 10 -20 -3 -20 -9 0 -15 -9
-15 -24 0 -17 7 -26 25 -30 24 -6 65 11 65 26 0 13 38 9 44 -4 4 -7 4 -3 2 10
-3 16 1 22 15 22 10 0 19 7 19 15 0 21 20 19 20 -2 1 -14 4 -13 14 6 9 16 15
20 18 10 3 -10 10 -8 28 9 13 12 20 22 16 22 -5 0 -2 8 5 18 7 9 10 14 5 10
-9 -8 -36 15 -36 31 0 12 32 3 41 -12 11 -16 47 15 42 37 -4 20 -4 20 10 3 15
-18 15 -18 22 2 7 23 25 27 43 9 8 -8 12 -8 12 -1 0 6 -14 16 -30 22 -18 6
-28 6 -25 1 4 -6 -1 -10 -9 -10 -9 0 -16 7 -16 15 0 15 -120 75 -148 74 -14 0
-13 -2 3 -9 11 -5 16 -9 10 -10 -5 -1 -1 -5 9 -9 19 -7 19 -8 -2 -13 -12 -4
-20 -3 -17 2 3 4 -2 11 -10 14 -13 4 -14 2 -5 -14 6 -11 15 -20 21 -20 6 0 7
-4 4 -10 -3 -5 1 -10 9 -10 9 0 16 -7 16 -16 0 -11 6 -15 20 -11 29 7 25 -8
-5 -21 -31 -14 -57 -16 -36 -3 11 7 6 15 -20 40 -19 17 -37 31 -41 31 -5 0 -8
4 -8 10 0 5 8 6 17 3 12 -5 15 -2 11 8 -3 8 -9 21 -13 31 -4 11 -1 18 12 21
16 4 16 5 1 6 -19 1 -26 21 -8 21 6 0 27 -7 47 -15 49 -21 55 -18 13 5 -29 16
-32 19 -13 20 13 0 21 5 19 13 -1 6 -1 9 1 5 9 -15 22 -7 32 20 l11 27 -4 -27
c-3 -24 0 -28 20 -28 16 0 24 7 27 23 l4 22 2 -23 c1 -15 -6 -25 -21 -31 l-22
-8 22 -12 c12 -6 22 -21 22 -31 0 -11 5 -20 11 -20 6 0 17 -7 25 -15 10 -9 26
-13 42 -10 23 4 24 4 7 -4 -15 -7 -16 -10 -5 -11 8 -2 20 -2 27 -1 6 1 14 -3
18 -9 3 -5 14 -10 23 -10 13 0 14 2 4 8 -7 5 -10 16 -6 25 3 10 1 17 -5 17 -6
0 -11 -5 -11 -12 0 -9 -3 -9 -11 -1 -13 13 -3 34 14 32 7 -1 23 3 37 9 23 11
22 12 -10 6 -30 -6 -33 -5 -22 8 10 13 9 16 -8 21 -11 3 -20 11 -20 19 0 11 2
11 9 -1 5 -7 14 -12 21 -9 6 2 -16 18 -49 36 -68 36 -72 38 -65 18 3 -8 0 -17
-7 -22 -8 -4 -10 -3 -5 4 4 6 2 21 -5 33 -9 18 -13 19 -21 8 -7 -11 -11 -11
-15 -1 -2 7 -11 19 -20 27 -13 13 -13 16 1 21 8 3 19 3 23 1 14 -9 57 29 49
42 -4 6 -12 8 -18 5 -7 -4 -8 -2 -4 4 9 15 36 4 36 -15 0 -12 3 -13 15 -3 11
9 19 4 42 -29 29 -41 77 -62 105 -45 11 6 11 5 0 -8 -10 -13 -10 -17 4 -22 8
-3 23 -6 32 -5 12 0 13 2 4 6 -10 4 -9 8 5 19 17 13 17 13 -2 14 -16 0 -17 2
-5 10 8 5 17 5 20 0 3 -5 13 -8 22 -6 34 5 29 15 -12 27 -24 7 -38 15 -32 17
6 2 8 10 5 18 -3 8 1 14 11 14 10 0 13 -5 9 -17 -5 -15 -4 -16 8 -7 8 7 30 14
49 18 19 3 29 3 23 0 -18 -8 -16 -27 1 -21 8 3 17 3 19 -1 2 -4 2 -1 0 7 -2 8
2 11 12 8 8 -4 17 -2 20 2 4 8 -48 24 -82 26 -6 0 -15 4 -20 9 -5 5 -2 6 6 1
10 -6 12 -4 7 4 -5 7 -15 10 -24 6 -8 -3 -18 -1 -22 5 -4 6 -31 13 -61 15 -43
4 -48 3 -21 -4 41 -11 52 -21 24 -21 -12 0 -22 -4 -22 -9 0 -6 9 -8 20 -6 17
3 18 1 8 -15 -7 -11 -15 -16 -18 -12 -8 11 -50 10 -50 -2 0 -6 -5 -4 -10 4 -9
13 -10 13 -10 0 0 -9 5 -21 11 -27 6 -6 7 -13 2 -16 -5 -3 -15 10 -22 30 -11
29 -11 37 0 44 10 6 7 9 -11 9 -14 0 -31 9 -38 20 -11 18 -10 20 19 20 19 0
37 -7 45 -17 13 -17 13 -17 14 -1 0 11 -15 25 -37 36 -47 21 -49 44 -5 53 40
8 54 19 24 19 -12 0 -29 8 -39 19 -17 17 -36 19 -118 11 -5 -1 -20 2 -32 5
-14 5 -23 3 -23 -3 0 -6 8 -12 18 -15 10 -2 3 -7 -19 -11 -28 -6 -41 -4 -57
10 -11 9 -18 23 -15 30 8 22 -14 16 -31 -8 -9 -12 -16 -17 -16 -11 0 7 5 15
10 18 6 3 10 13 10 21 0 8 -4 14 -10 14 -5 0 -10 -7 -10 -15 0 -9 -9 -15 -22
-14 -17 1 -19 2 -5 6 21 5 21 21 2 47 -15 20 -15 20 -15 0 0 -15 -2 -16 -9 -5
-8 12 -12 13 -26 1 -12 -10 -13 -15 -3 -21 7 -4 9 -11 5 -15 -4 -4 -17 1 -28
12 -16 14 -23 15 -26 7 -3 -7 -14 -13 -25 -13 -17 0 -20 -5 -16 -30 3 -22 0
-31 -14 -35 -21 -7 -66 29 -49 40 13 8 15 45 2 45 -5 0 -14 12 -20 28 -39 95
-100 151 -117 107 -4 -8 -10 -15 -16 -15 -5 0 -6 5 -3 10 3 6 -3 10 -14 10
-30 0 -52 11 -44 23 4 6 1 7 -6 3 -7 -5 -21 0 -32 10 -10 9 -19 13 -19 8 -1
-5 -8 3 -16 19 -8 15 -18 28 -22 28 -4 1 -18 3 -32 5 -79 11 -90 15 -79 36 15
28 5 33 -25 13 -16 -11 -28 -30 -32 -53 -4 -21 -10 -39 -13 -42 -11 -9 -31
-50 -31 -63 0 -19 -39 -59 -51 -52 -5 4 -9 1 -9 -5 0 -6 11 -8 28 -4 19 4 23
3 13 -4 -7 -5 -14 -20 -15 -33 -1 -22 -26 -41 -26 -20 0 6 -4 11 -8 11 -5 0
-8 -24 -7 -52 1 -31 1 -37 -2 -15 -4 36 -6 38 -33 35 -20 -2 -36 4 -50 20 -12
12 -25 20 -31 17 -5 -4 -9 0 -9 7 -1 10 -4 9 -13 -2 -7 -9 -21 -17 -32 -18
-11 -1 -29 -3 -40 -6 -11 -2 -24 -1 -30 3 -9 5 -40 9 -107 12 -15 1 -44 17
-65 35 -20 18 -41 30 -46 27 -5 -3 -3 -9 4 -14 7 -4 10 -11 6 -15 -10 -10 -37
28 -29 41 10 15 9 29 -3 37 -5 4 -10 15 -10 24 0 18 -13 24 -110 45 -84 19
-42 28 105 22 l115 -5 -24 20 c-24 20 -22 42 5 42 8 0 14 2 14 5 0 11 -41 45
-49 40 -5 -2 -14 2 -21 10 -7 8 -9 15 -4 15 5 0 -6 8 -24 17 -24 12 -30 18
-20 24 9 6 6 9 -9 9 -13 0 -23 6 -23 14 0 8 -7 16 -15 20 -8 3 -15 15 -15 27
0 13 -6 38 -12 57 -12 31 -11 35 11 53 13 10 27 19 31 19 4 0 10 -21 14 -47
15 -112 20 -125 56 -153 17 -13 30 -29 30 -35 0 -8 27 -15 78 -20 42 -5 85 -9
95 -10 9 -1 17 3 17 9 0 6 5 4 11 -4 8 -11 12 -12 16 -2 2 7 22 12 44 12 24 0
38 4 34 10 -3 6 -1 10 4 10 6 0 11 -4 11 -9 0 -10 50 -2 68 12 8 6 12 5 13 -4
0 -8 5 -2 10 13 6 15 16 25 22 22 17 -6 51 55 49 85 -1 13 -7 30 -13 37 -9 10
-9 14 0 14 6 0 11 5 11 11 0 6 -7 9 -15 5 -9 -3 -15 0 -15 10 0 9 5 13 13 9 6
-4 4 0 -5 8 -21 16 -24 47 -5 47 9 0 9 2 -1 9 -8 4 -13 11 -13 15 1 3 -1 5 -2
4 -12 -9 -38 29 -34 50 3 16 -1 26 -14 30 -10 4 -29 22 -42 40 -26 34 -33 31
-46 -23 0 -3 -12 2 -26 11 -14 9 -34 14 -45 11 -11 -3 -20 -1 -20 4 0 4 -13 7
-29 6 -16 -1 -27 -6 -24 -11 11 -16 -104 0 -122 17 -19 20 -20 20 -62 8 -19
-6 -35 -5 -41 1 -6 6 -12 3 -16 -7z"/>
<path d="M4496 2908 c-3 -7 -7 -35 -10 -61 -3 -26 -11 -57 -17 -69 -14 -26
-19 -107 -7 -130 5 -11 3 -21 -5 -30 -16 -16 -19 -140 -4 -150 7 -4 -1 -18
-20 -35 -24 -23 -30 -35 -26 -56 4 -21 2 -27 -13 -27 -16 0 -16 -2 -4 -10 12
-7 11 -12 -8 -28 -24 -21 -29 -42 -11 -42 7 0 0 -11 -16 -25 -17 -17 -25 -33
-22 -45 3 -11 -1 -24 -8 -30 -10 -8 -15 -7 -18 7 -3 10 -4 2 -4 -17 2 -31 -1
-35 -20 -33 -22 3 -27 -6 -24 -34 2 -13 -17 -18 -53 -14 -17 1 -16 -2 7 -23
14 -13 23 -27 20 -30 -3 -3 0 -12 7 -21 10 -12 10 -15 -1 -15 -8 0 -20 4 -28
9 -17 11 -51 -7 -51 -27 0 -7 -11 -11 -28 -10 -44 3 -55 -9 -35 -37 10 -12 22
-21 27 -18 4 3 5 -4 1 -16 -4 -13 -2 -21 5 -21 6 0 8 -5 5 -10 -5 -8 -11 -8
-20 0 -17 14 -32 -7 -16 -23 16 -16 14 -32 -3 -18 -8 6 -19 10 -26 9 -7 -2
-15 4 -17 12 -4 13 -3 13 6 0 13 -18 15 -1 2 19 -7 10 -11 9 -23 -8 -8 -11
-18 -18 -21 -14 -4 3 -2 13 5 20 9 11 9 17 -3 24 -8 5 -17 9 -21 9 -13 0 -9
-18 5 -23 10 -4 10 -6 0 -6 -26 -2 -12 -27 25 -43 20 -10 29 -16 19 -13 -11 3
-17 0 -15 -6 2 -6 8 -11 13 -12 16 -3 57 -49 49 -56 -4 -3 -9 0 -11 7 -3 6
-11 12 -19 12 -8 0 -14 5 -14 12 0 6 -3 8 -6 5 -4 -3 -16 0 -28 8 -11 8 -27
15 -36 14 -10 0 -11 -2 -2 -6 6 -2 10 -9 7 -14 -3 -5 -21 1 -40 14 -35 22 -48
44 -20 33 38 -15 50 -17 30 -5 -11 7 -23 17 -26 22 -9 13 -26 1 -32 -23 -3
-11 -2 -18 2 -16 4 3 20 -6 36 -20 15 -13 23 -24 16 -24 -7 0 -9 -5 -6 -10 4
-6 10 -8 15 -5 4 3 7 -3 6 -12 -2 -9 -9 -19 -16 -21 -8 -3 -10 0 -5 8 5 8 1
11 -11 8 -10 -2 -20 -12 -22 -23 -6 -32 -18 -37 -17 -7 0 15 5 31 10 35 6 6 6
10 -3 14 -6 2 -10 8 -7 13 3 4 -4 6 -15 3 -11 -3 -20 -10 -20 -15 0 -6 6 -8
14 -5 11 4 14 -1 13 -21 -2 -18 -13 -32 -37 -46 -30 -18 -33 -18 -27 -3 3 9 2
17 -4 17 -6 0 -13 -9 -16 -19 -5 -20 -43 -26 -43 -7 0 5 -8 2 -18 -7 -10 -10
-28 -17 -40 -17 -15 0 -22 -6 -22 -20 0 -11 5 -20 12 -20 23 0 -2 -12 -30 -15
-25 -2 -29 1 -24 18 3 14 1 18 -6 13 -16 -10 -15 -43 1 -50 6 -3 -1 -4 -18 -3
-25 2 -31 -2 -33 -21 -2 -15 -9 -22 -18 -18 -7 3 -20 -1 -28 -9 -8 -8 -22 -15
-30 -15 -9 0 -16 -7 -16 -16 0 -8 -4 -12 -10 -9 -17 11 -11 37 11 42 15 4 17
8 8 14 -8 5 -17 3 -21 -4 -6 -9 -8 -9 -8 1 0 6 -5 12 -11 12 -6 0 -9 -15 -8
-34 2 -19 0 -38 -4 -42 -4 -4 -7 2 -7 14 0 11 -5 24 -10 27 -7 4 -6 13 1 26 6
13 7 25 1 32 -5 7 -8 23 -6 36 3 13 -1 31 -8 39 -8 10 -9 13 -1 9 7 -5 9 0 6
13 -5 18 0 20 38 22 24 0 58 1 74 0 20 0 23 1 10 5 -11 3 -23 10 -27 17 -5 8
-11 7 -20 -2 -14 -14 -58 -16 -58 -2 0 6 14 10 31 10 17 0 28 4 24 10 -3 6 1
10 9 10 19 0 21 16 4 23 -7 3 2 6 21 6 27 1 32 -2 27 -16 -4 -11 2 -8 13 7
l20 25 -6 -25 c-3 -14 -11 -28 -17 -32 -6 -5 -2 -8 9 -8 17 0 21 7 23 36 l3
36 -41 -7 c-26 -4 -40 -3 -40 4 0 6 9 11 19 11 20 0 31 17 24 38 -3 6 -13 12
-24 12 -10 0 -19 5 -19 10 0 6 -9 10 -20 10 -23 0 -25 -10 -7 -29 10 -11 9
-12 -2 -6 -14 8 -14 7 6 -42 3 -7 0 -13 -7 -13 -6 0 -8 -4 -5 -10 3 -6 -1 -7
-9 -4 -9 3 -16 15 -16 25 0 12 -7 19 -20 19 -13 0 -20 -7 -20 -20 0 -11 5 -20
10 -20 6 0 10 -5 10 -11 0 -6 -7 -9 -16 -7 -11 2 -17 16 -19 46 -4 45 -15 72
-15 35 0 -20 -22 -37 -34 -26 -8 8 4 55 17 68 7 7 7 5 2 -5 -8 -13 -7 -13 8
-1 21 17 22 37 1 45 -22 8 -24 8 -24 -8 0 -7 -10 -16 -22 -19 -18 -5 -19 -8
-8 -21 8 -11 9 -16 1 -16 -15 0 -14 -57 2 -63 10 -4 10 -6 0 -6 -7 -1 -13 -12
-13 -26 0 -19 5 -25 21 -25 11 0 17 5 14 10 -4 6 -10 8 -14 6 -4 -3 -8 1 -8 9
0 13 3 13 17 0 11 -10 15 -25 12 -40 -2 -15 0 -25 7 -25 6 0 11 9 11 21 0 14
5 19 17 17 9 -2 16 -6 15 -10 -2 -5 -5 -21 -8 -37 -4 -17 -14 -32 -23 -34 -13
-4 -12 -6 6 -12 15 -5 22 -17 26 -43 5 -41 0 -53 -13 -33 -7 12 -11 12 -24 -1
-8 -9 -12 -19 -8 -22 3 -4 -1 -4 -11 0 -9 3 -18 16 -18 28 -1 20 -2 20 -6 1
-9 -38 -22 -39 -37 -4 -15 34 -15 34 -16 7 0 -24 -4 -28 -30 -29 -16 -1 -36
-2 -42 -3 -7 -1 -16 8 -20 19 -6 19 -6 19 -7 -2 -1 -20 -7 -23 -39 -23 -26 0
-42 -6 -52 -20 -14 -20 -37 -29 -25 -11 3 5 0 13 -6 17 -18 10 -28 -16 -18
-48 8 -31 3 -58 -12 -58 -5 0 -9 -8 -9 -17 0 -15 -2 -14 -15 3 -11 14 -15 16
-15 4 0 -11 -3 -10 -11 4 -6 10 -9 33 -6 52 6 38 1 43 -19 17 -13 -17 -13 -17
-14 0 0 10 -4 16 -9 13 -5 -4 -24 1 -43 11 -65 32 -68 33 -68 22 0 -5 -5 -7
-11 -3 -7 4 -10 -3 -9 -17 3 -39 1 -51 -10 -44 -5 3 -10 0 -10 -9 0 -8 -6 -17
-12 -19 -9 -4 -10 -8 -2 -14 6 -4 14 -17 18 -28 6 -17 3 -16 -17 5 -14 14 -22
30 -19 35 3 6 -1 4 -8 -2 -11 -10 -9 -17 14 -38 15 -14 24 -30 21 -35 -3 -6 1
-13 9 -16 20 -8 21 -31 2 -31 -8 0 -12 6 -9 14 3 7 0 13 -6 13 -6 0 -11 -9
-11 -20 0 -12 6 -20 13 -19 29 4 37 -3 37 -30 0 -39 -33 -63 -67 -50 -31 11
-38 -6 -24 -57 6 -21 9 -40 6 -42 -2 -2 -9 16 -15 39 -16 62 -18 67 -19 39 -1
-20 -3 -22 -11 -10 -9 14 -14 7 -11 -13 1 -4 -7 -3 -18 3 -26 13 -28 13 -28
-5 0 -8 4 -12 9 -9 4 3 8 -2 8 -10 0 -23 -27 -20 -40 4 -8 15 -8 20 2 21 19 1
-133 38 -159 39 -22 0 -26 -26 -6 -38 6 -4 14 -24 18 -44 6 -32 11 -37 39 -41
26 -3 24 -4 -11 -5 -40 -2 -43 0 -43 23 0 21 -5 25 -31 25 -26 0 -31 3 -26 20
3 13 0 20 -9 20 -8 0 -14 10 -15 23 -1 18 -2 17 -10 -8 -5 -16 -7 -35 -5 -42
9 -22 -32 -22 -48 1 -15 21 -15 21 -15 -6 -1 -25 8 -33 32 -29 4 0 7 -12 7
-29 0 -23 4 -30 20 -30 17 0 20 -7 20 -40 0 -22 5 -40 10 -40 6 0 10 -18 10
-39 0 -45 19 -67 21 -24 1 26 2 26 11 -8 5 -19 20 -48 34 -64 17 -20 24 -38
21 -54 -3 -14 1 -31 9 -38 18 -18 19 -57 2 -47 -9 5 -9 2 1 -9 9 -11 10 -17 2
-17 -6 0 -11 -5 -11 -11 0 -5 5 -7 12 -3 6 4 8 3 5 -4 -4 -5 -4 -18 -1 -27 5
-12 9 -13 14 -4 5 7 7 2 7 -14 -1 -14 -5 -23 -10 -20 -4 2 -7 -1 -7 -6 0 -6 7
-11 15 -11 11 0 15 -12 15 -45 0 -37 -3 -45 -18 -45 -10 0 -24 -6 -31 -12 -10
-11 -15 -9 -26 5 -12 17 -14 17 -29 -5 -9 -12 -16 -17 -16 -10 0 9 -7 11 -20
7 -21 -7 -28 10 -7 18 6 3 2 6 -9 6 -12 1 -24 8 -28 16 -3 8 -10 15 -16 15 -6
0 -17 6 -24 13 -8 6 -23 19 -35 27 -11 8 -21 20 -21 27 0 7 -16 15 -35 19 -21
4 -32 10 -28 17 4 7 0 8 -11 4 -10 -4 -21 -7 -24 -7 -4 -1 7 -7 23 -15 17 -7
25 -14 18 -14 -14 -1 -6 -32 11 -43 8 -5 7 -13 -1 -27 -18 -28 -7 -50 23 -46
33 3 38 -9 20 -46 -15 -30 -14 -31 16 -61 28 -27 30 -34 24 -74 -3 -24 -2 -44
2 -44 4 0 7 -13 7 -30 1 -20 -4 -30 -15 -31 -10 0 -11 -2 -2 -6 18 -7 15 -21
-5 -19 -11 0 -17 -5 -15 -13 2 -11 -14 -13 -87 -9 -72 3 -88 1 -84 -9 3 -8 8
-11 11 -8 3 2 11 -4 19 -15 8 -11 21 -20 30 -20 12 0 13 -3 4 -14 -9 -11 -4
-17 26 -32 37 -18 98 -19 1681 -22 l1642 -2 0 74 c0 63 -3 75 -17 79 -17 4
-17 5 0 6 9 0 17 6 17 12 0 7 -17 10 -45 7 -25 -2 -45 0 -45 4 0 5 21 9 48 9
l47 2 -60 8 c-33 4 -73 4 -90 -1 -38 -10 -65 -9 -65 3 0 5 -5 5 -13 -1 -7 -6
-29 -9 -50 -7 -20 1 -34 -1 -31 -6 3 -5 -2 -9 -10 -9 -9 0 -16 5 -16 10 0 12
-67 12 -95 0 -13 -6 -1 -7 34 -3 48 5 54 4 48 -11 -4 -11 -1 -19 11 -23 9 -4
28 -15 41 -25 17 -13 41 -18 82 -18 33 0 59 -4 59 -10 0 -5 9 -10 20 -10 11 0
20 -6 20 -14 0 -9 16 -17 43 -22 25 -5 34 -9 23 -12 -15 -3 -16 -6 -5 -13 10
-6 7 -9 -13 -9 -15 0 -29 4 -32 9 -6 8 -45 16 -127 25 -20 2 -45 8 -55 14 -10
5 -29 8 -42 7 -13 -1 -25 2 -28 7 -3 4 -10 6 -15 3 -5 -4 -19 1 -31 9 -12 9
-39 16 -60 16 -31 0 -38 4 -38 20 0 11 9 25 20 32 11 7 20 18 20 24 0 7 -8 10
-20 7 -11 -3 -20 0 -20 6 0 6 -9 11 -20 11 -11 0 -20 7 -20 15 0 11 -8 13 -31
8 -25 -5 -35 -1 -54 20 -20 21 -22 27 -10 37 8 6 11 18 9 25 -4 10 0 12 15 8
12 -3 21 -10 21 -15 0 -5 -4 -6 -10 -3 -5 3 -10 1 -10 -4 0 -6 7 -11 15 -11 9
0 15 9 15 24 0 18 8 27 30 35 17 5 30 14 30 19 0 5 23 7 50 4 32 -3 50 -1 50
6 0 6 -10 13 -22 15 -19 4 -18 4 5 6 33 1 27 21 -6 21 -18 0 -20 2 -7 11 12 9
11 9 -5 4 -37 -14 -66 -18 -64 -9 6 27 -13 39 -59 37 -37 -2 -42 0 -22 6 24 9
24 9 3 10 -13 1 -23 6 -23 12 0 6 -7 9 -15 6 -8 -4 -17 -1 -21 5 -4 7 7 8 35
3 25 -4 41 -3 41 3 0 6 10 8 23 5 17 -4 19 -3 7 6 -13 9 -13 12 3 24 17 12 17
14 3 26 -14 11 -16 11 -16 -3 0 -9 -5 -16 -11 -16 -5 0 -7 5 -4 11 4 6 -2 13
-14 16 -11 3 -19 9 -16 13 11 17 -100 26 -125 10 -10 -6 -2 -8 26 -5 31 4 46
1 64 -15 13 -11 20 -23 16 -27 -4 -4 -11 -1 -16 7 -5 8 -20 15 -34 16 -25 1
-30 -6 -29 -42 0 -7 -15 -8 -46 -3 -25 4 -49 5 -53 3 -4 -3 -11 3 -16 13 -11
19 -42 27 -42 9 0 -8 -25 -12 -80 -12 -79 -1 -80 0 -81 25 -1 25 -1 25 -10 -4
-6 -20 -5 -31 4 -37 6 -4 8 -10 4 -15 -5 -4 -13 -1 -18 7 -8 11 -12 12 -16 3
-9 -24 -33 -13 -39 17 -4 17 -10 30 -14 30 -4 0 -13 14 -20 30 -7 17 -16 30
-20 30 -14 0 -7 36 13 60 l19 25 -6 -25 c-5 -17 -4 -21 2 -11 7 10 11 10 14 1
2 -6 5 14 6 46 1 32 7 63 12 68 5 5 5 17 -2 29 -9 18 -8 19 13 15 13 -3 31 -8
39 -12 12 -5 16 0 17 21 0 16 -1 20 -4 11 -5 -18 -33 -25 -33 -9 0 5 -10 12
-22 14 -17 3 -14 5 10 6 22 1 32 6 32 17 0 8 5 12 10 9 6 -4 13 7 16 24 4 17
10 31 15 31 5 0 4 12 -1 26 -14 36 -12 54 5 54 9 0 15 9 14 22 -1 40 8 115 15
127 11 17 -4 36 -15 20 -6 -9 -8 1 -5 26 3 22 5 46 5 53 1 8 8 11 20 7 25 -8
34 26 14 55 -8 11 -12 28 -10 38 4 13 5 11 6 -5 1 -19 36 -51 46 -41 2 2 -2
22 -8 45 -9 33 -8 47 3 68 9 17 17 22 24 15 14 -14 26 -12 26 5 0 8 -7 15 -15
15 -8 0 -15 5 -15 10 0 6 6 10 14 10 23 0 36 204 14 213 -7 3 -3 6 10 6 26 1
30 18 5 24 -17 4 -17 5 0 6 10 0 15 6 12 11 -4 6 -1 18 6 26 10 13 10 17 -1
24 -8 5 -12 12 -8 15 3 3 0 27 -8 52 -13 42 -13 45 6 50 11 3 20 14 20 24 0
12 7 19 20 19 14 0 20 7 20 21 0 16 5 20 20 16 17 -4 20 0 20 24 0 23 -5 29
-20 29 -14 0 -20 -6 -18 -17 2 -11 -6 -19 -22 -23 -15 -4 -24 -13 -22 -21 2
-8 0 -10 -5 -6 -4 5 -8 12 -8 15 0 4 -4 12 -8 19 -4 6 1 25 10 41 14 25 24 30
55 30 46 1 66 11 47 23 -8 4 -19 3 -26 -3 -20 -16 -28 -2 -10 17 12 11 22 13
41 5 17 -6 26 -6 26 0 0 6 -4 10 -10 10 -22 0 -8 37 20 53 28 17 29 20 16 40
-13 19 -13 25 0 41 20 29 18 80 -6 101 -11 10 -20 25 -20 34 0 13 2 14 9 2 6
-10 9 -3 9 22 0 21 -8 44 -19 56 -11 12 -17 21 -14 21 3 0 -15 38 -40 84 -25
46 -44 89 -43 94 2 6 1 10 -2 9 -8 -1 -100 92 -100 102 0 15 -48 60 -55 52 -4
-3 -5 -1 -4 4 4 14 -20 55 -32 55 -5 0 -11 -6 -13 -12z"/>
<path d="M4993 1935 c-15 -16 -16 -54 -4 -107 6 -26 5 -39 -3 -42 -6 -2 -2 -5
10 -5 25 -1 76 -41 52 -41 -9 0 -21 -7 -28 -15 -7 -9 -16 -12 -19 -7 -3 6 -11
4 -18 -3 -10 -10 -9 -16 2 -25 11 -9 15 -9 15 -1 0 6 9 11 20 11 11 0 20 -7
20 -15 0 -8 -4 -15 -9 -15 -5 0 -9 -6 -8 -12 1 -34 -5 -46 -24 -51 -35 -9 -10
-27 38 -27 45 0 46 -1 29 -19 -16 -18 -16 -20 -1 -29 16 -8 16 -10 0 -30 -14
-15 -19 -42 -22 -101 -2 -71 -1 -81 15 -82 9 -1 22 -2 27 -4 6 -1 17 -3 25 -4
9 -2 5 -6 -10 -11 -23 -7 -22 -8 10 -9 19 0 52 4 73 10 28 8 42 7 53 -1 18
-15 64 -4 64 15 0 8 11 22 25 31 14 9 22 20 19 25 -9 15 -22 10 -26 -8 -2 -13
-6 -14 -11 -6 -4 6 -1 18 7 25 11 11 8 16 -23 30 -19 9 -39 14 -43 12 -5 -3
-8 0 -8 6 0 7 8 9 19 5 23 -7 39 13 17 21 -10 4 -16 18 -16 36 0 17 -4 27 -10
23 -6 -4 -10 10 -10 34 0 23 -4 41 -10 41 -5 0 -10 4 -10 9 0 5 9 7 20 4 11
-3 20 0 20 6 0 5 -6 8 -13 5 -18 -7 -51 32 -43 51 3 10 2 13 -5 10 -15 -10
-40 16 -34 36 4 11 -3 25 -16 38 -12 11 -19 26 -16 35 9 22 -14 32 -28 12 -11
-14 -13 -11 -19 23 -3 22 -12 44 -19 48 -7 4 -18 24 -23 43 -11 38 -32 48 -51
25z"/>
<path d="M3184 1818 c-4 -6 -2 -14 5 -16 8 -3 4 -10 -10 -22 -11 -11 -18 -23
-15 -29 4 -5 2 -12 -4 -16 -6 -4 -8 -11 -5 -16 4 -5 -2 -9 -12 -9 -11 0 -24
-5 -31 -12 -9 -9 -12 -9 -12 -1 0 7 5 15 10 18 19 12 10 35 -12 35 -19 0 -20
2 -8 10 12 7 8 12 -17 21 -18 6 -33 16 -33 22 0 6 -3 8 -6 4 -10 -10 7 -47 22
-47 8 0 12 -5 9 -10 -4 -6 -3 -10 2 -9 4 1 16 1 26 0 30 -2 18 -20 -18 -27
-25 -4 -35 -11 -35 -25 0 -21 36 -27 42 -7 3 9 6 9 12 0 4 -7 2 -12 -3 -12 -6
0 -11 -4 -11 -10 0 -5 9 -10 20 -10 17 0 20 -7 20 -40 0 -33 3 -38 17 -33 11
4 12 8 5 11 -18 6 -15 62 3 62 10 0 15 10 15 28 0 21 2 24 10 12 5 -8 10 -25
10 -37 0 -32 18 -28 23 5 l4 27 2 -27 c1 -24 5 -28 30 -28 25 0 29 3 27 25 -2
14 1 22 6 18 6 -3 7 3 3 16 -5 15 -2 21 9 21 11 0 16 10 17 33 0 17 3 45 5 61
5 27 4 28 -12 15 -10 -8 -15 -9 -11 -3 4 7 -2 10 -18 6 -32 -6 -32 -22 -1 -22
14 0 28 -5 31 -10 8 -12 -32 -9 -52 3 -7 5 -18 5 -25 1 -7 -4 -8 -3 -4 4 4 7
1 12 -9 12 -9 0 -13 5 -10 10 3 6 4 10 1 10 -3 0 -8 -5 -12 -12z"/>
<path d="M5421 1060 c-1 -12 -10 -15 -41 -12 -29 3 -40 0 -40 -10 0 -10 9 -13
33 -10 30 3 32 2 32 -30 0 -24 -9 -42 -33 -65 -18 -18 -37 -33 -42 -33 -6 0
-10 -6 -10 -13 0 -9 -11 -12 -37 -9 -31 3 -36 2 -25 -9 15 -17 78 -13 106 6
11 8 31 15 44 15 18 0 23 4 18 16 -4 12 -2 15 9 10 10 -4 15 1 15 14 0 11 4
20 10 20 5 0 9 16 8 35 -1 19 2 38 5 42 4 3 7 -9 7 -27 0 -18 3 -31 6 -27 10
9 -6 97 -17 97 -6 0 -7 -4 -4 -10 3 -5 -3 -10 -14 -10 -10 0 -22 6 -24 13 -4
8 -6 7 -6 -3z"/>
</g>
</svg>
